<mxfile host="Electron" modified="2024-06-17T20:16:32.881Z" agent="Mozilla/5.0 (Macintosh; Intel Mac OS X 10_15_7) AppleWebKit/537.36 (KHTML, like Gecko) draw.io/24.5.3 Chrome/124.0.6367.207 Electron/30.0.6 Safari/537.36" etag="ohoc5UaAA8UMq8RuRMsl" scale="1" border="0" version="24.5.3" type="device">
  <diagram name="Platform Design Process w/o Peer Review" id="fnWVk8yJ1Q_xxJSi38dT">
    <mxGraphModel dx="2027" dy="854" grid="1" gridSize="10" guides="1" tooltips="1" connect="1" arrows="1" fold="1" page="1" pageScale="1" pageWidth="827" pageHeight="1169" math="0" shadow="0">
      <root>
        <mxCell id="6_8fhXvHgbxx92lj2Nil-0" />
        <mxCell id="6_8fhXvHgbxx92lj2Nil-1" parent="6_8fhXvHgbxx92lj2Nil-0" />
        <mxCell id="6_8fhXvHgbxx92lj2Nil-7" value="Owner creates design proposal" style="rounded=1;whiteSpace=wrap;html=1;fontSize=12;glass=0;strokeWidth=1;shadow=0;" parent="6_8fhXvHgbxx92lj2Nil-1" vertex="1">
          <mxGeometry x="-10" y="710" width="120" height="60" as="geometry" />
        </mxCell>
        <mxCell id="6_8fhXvHgbxx92lj2Nil-19" style="edgeStyle=orthogonalEdgeStyle;rounded=0;orthogonalLoop=1;jettySize=auto;html=1;" parent="6_8fhXvHgbxx92lj2Nil-1" source="6_8fhXvHgbxx92lj2Nil-20" target="6_8fhXvHgbxx92lj2Nil-24" edge="1">
          <mxGeometry relative="1" as="geometry" />
        </mxCell>
        <mxCell id="6_8fhXvHgbxx92lj2Nil-20" value="Voting occurs" style="rounded=1;whiteSpace=wrap;html=1;fontSize=12;glass=0;strokeWidth=1;shadow=0;" parent="6_8fhXvHgbxx92lj2Nil-1" vertex="1">
          <mxGeometry x="160" y="710" width="120" height="60" as="geometry" />
        </mxCell>
        <mxCell id="6_8fhXvHgbxx92lj2Nil-21" style="edgeStyle=orthogonalEdgeStyle;rounded=0;orthogonalLoop=1;jettySize=auto;html=1;" parent="6_8fhXvHgbxx92lj2Nil-1" source="6_8fhXvHgbxx92lj2Nil-24" target="6_8fhXvHgbxx92lj2Nil-27" edge="1">
          <mxGeometry relative="1" as="geometry" />
        </mxCell>
        <mxCell id="6_8fhXvHgbxx92lj2Nil-22" value="no" style="edgeLabel;html=1;align=center;verticalAlign=middle;resizable=0;points=[];" parent="6_8fhXvHgbxx92lj2Nil-21" vertex="1" connectable="0">
          <mxGeometry x="-0.2571" y="2" relative="1" as="geometry">
            <mxPoint y="2" as="offset" />
          </mxGeometry>
        </mxCell>
        <mxCell id="6_8fhXvHgbxx92lj2Nil-23" style="edgeStyle=orthogonalEdgeStyle;rounded=0;orthogonalLoop=1;jettySize=auto;html=1;" parent="6_8fhXvHgbxx92lj2Nil-1" source="6_8fhXvHgbxx92lj2Nil-24" target="6_8fhXvHgbxx92lj2Nil-44" edge="1">
          <mxGeometry relative="1" as="geometry">
            <mxPoint x="220" y="970" as="targetPoint" />
          </mxGeometry>
        </mxCell>
        <mxCell id="DJkzVoQYtXgY5xoQebrb-0" value="yes" style="edgeLabel;html=1;align=center;verticalAlign=middle;resizable=0;points=[];" parent="6_8fhXvHgbxx92lj2Nil-23" connectable="0" vertex="1">
          <mxGeometry x="-0.3091" y="3" relative="1" as="geometry">
            <mxPoint as="offset" />
          </mxGeometry>
        </mxCell>
        <mxCell id="6_8fhXvHgbxx92lj2Nil-24" value="Proposal accepted?" style="rhombus;whiteSpace=wrap;html=1;" parent="6_8fhXvHgbxx92lj2Nil-1" vertex="1">
          <mxGeometry x="147.5" y="810" width="145" height="105" as="geometry" />
        </mxCell>
        <mxCell id="6_8fhXvHgbxx92lj2Nil-25" style="edgeStyle=orthogonalEdgeStyle;rounded=0;orthogonalLoop=1;jettySize=auto;html=1;" parent="6_8fhXvHgbxx92lj2Nil-1" source="6_8fhXvHgbxx92lj2Nil-27" target="6_8fhXvHgbxx92lj2Nil-31" edge="1">
          <mxGeometry relative="1" as="geometry" />
        </mxCell>
        <mxCell id="DJkzVoQYtXgY5xoQebrb-2" value="no" style="edgeLabel;html=1;align=center;verticalAlign=middle;resizable=0;points=[];" parent="6_8fhXvHgbxx92lj2Nil-25" connectable="0" vertex="1">
          <mxGeometry x="-0.3231" y="2" relative="1" as="geometry">
            <mxPoint y="1" as="offset" />
          </mxGeometry>
        </mxCell>
        <mxCell id="6_8fhXvHgbxx92lj2Nil-26" style="edgeStyle=orthogonalEdgeStyle;rounded=0;orthogonalLoop=1;jettySize=auto;html=1;" parent="6_8fhXvHgbxx92lj2Nil-1" source="6_8fhXvHgbxx92lj2Nil-27" target="6_8fhXvHgbxx92lj2Nil-41" edge="1">
          <mxGeometry relative="1" as="geometry" />
        </mxCell>
        <mxCell id="DJkzVoQYtXgY5xoQebrb-1" value="yes" style="edgeLabel;html=1;align=center;verticalAlign=middle;resizable=0;points=[];" parent="6_8fhXvHgbxx92lj2Nil-26" connectable="0" vertex="1">
          <mxGeometry x="-0.2727" y="-2" relative="1" as="geometry">
            <mxPoint as="offset" />
          </mxGeometry>
        </mxCell>
        <mxCell id="6_8fhXvHgbxx92lj2Nil-27" value="Proposal withdrawn?" style="rhombus;whiteSpace=wrap;html=1;" parent="6_8fhXvHgbxx92lj2Nil-1" vertex="1">
          <mxGeometry x="350" y="810" width="145" height="105" as="geometry" />
        </mxCell>
        <mxCell id="6_8fhXvHgbxx92lj2Nil-31" value="Owner iterates on proposal" style="rounded=1;whiteSpace=wrap;html=1;fontSize=12;glass=0;strokeWidth=1;shadow=0;" parent="6_8fhXvHgbxx92lj2Nil-1" vertex="1">
          <mxGeometry x="362.5" y="710" width="120" height="60" as="geometry" />
        </mxCell>
        <mxCell id="6_8fhXvHgbxx92lj2Nil-34" style="edgeStyle=orthogonalEdgeStyle;rounded=0;orthogonalLoop=1;jettySize=auto;html=1;" parent="6_8fhXvHgbxx92lj2Nil-1" source="6_8fhXvHgbxx92lj2Nil-31" target="6_8fhXvHgbxx92lj2Nil-20" edge="1">
          <mxGeometry relative="1" as="geometry">
            <mxPoint x="350" y="740" as="sourcePoint" />
          </mxGeometry>
        </mxCell>
        <mxCell id="6_8fhXvHgbxx92lj2Nil-41" value="Owner updates the proposal with the withdrawal reason" style="rounded=1;whiteSpace=wrap;html=1;fontSize=12;glass=0;strokeWidth=1;shadow=0;" parent="6_8fhXvHgbxx92lj2Nil-1" vertex="1">
          <mxGeometry x="362.5" y="970" width="120" height="60" as="geometry" />
        </mxCell>
        <mxCell id="6_8fhXvHgbxx92lj2Nil-42" style="edgeStyle=orthogonalEdgeStyle;rounded=0;orthogonalLoop=1;jettySize=auto;html=1;exitX=0;exitY=0.5;exitDx=0;exitDy=0;" parent="6_8fhXvHgbxx92lj2Nil-1" source="6_8fhXvHgbxx92lj2Nil-41" target="6_8fhXvHgbxx92lj2Nil-44" edge="1">
          <mxGeometry relative="1" as="geometry">
            <mxPoint x="392.5" y="1100" as="sourcePoint" />
          </mxGeometry>
        </mxCell>
        <mxCell id="6_8fhXvHgbxx92lj2Nil-44" value="" style="ellipse;whiteSpace=wrap;html=1;aspect=fixed;fillColor=#647687;fontColor=#ffffff;strokeColor=#314354;" parent="6_8fhXvHgbxx92lj2Nil-1" vertex="1">
          <mxGeometry x="195" y="975" width="50" height="50" as="geometry" />
        </mxCell>
        <mxCell id="8T4ql4SQYY0DpLJ9KUZD-2" style="edgeStyle=orthogonalEdgeStyle;rounded=0;orthogonalLoop=1;jettySize=auto;html=1;" parent="6_8fhXvHgbxx92lj2Nil-1" source="6_8fhXvHgbxx92lj2Nil-46" target="6_8fhXvHgbxx92lj2Nil-7" edge="1">
          <mxGeometry relative="1" as="geometry" />
        </mxCell>
        <mxCell id="6_8fhXvHgbxx92lj2Nil-46" value="" style="ellipse;whiteSpace=wrap;html=1;aspect=fixed;fillColor=#647687;fontColor=#ffffff;strokeColor=#314354;" parent="6_8fhXvHgbxx92lj2Nil-1" vertex="1">
          <mxGeometry x="-100" y="715" width="50" height="50" as="geometry" />
        </mxCell>
        <mxCell id="jZsBoAmnQ-bxDufr5oxM-2" style="edgeStyle=orthogonalEdgeStyle;rounded=0;orthogonalLoop=1;jettySize=auto;html=1;entryX=0;entryY=0.5;entryDx=0;entryDy=0;" parent="6_8fhXvHgbxx92lj2Nil-1" source="6_8fhXvHgbxx92lj2Nil-7" target="6_8fhXvHgbxx92lj2Nil-20" edge="1">
          <mxGeometry relative="1" as="geometry">
            <mxPoint x="220" y="680" as="sourcePoint" />
            <Array as="points" />
          </mxGeometry>
        </mxCell>
      </root>
    </mxGraphModel>
  </diagram>
</mxfile>
